<mxfile host="app.diagrams.net" modified="2023-06-12T05:12:40.636Z" agent="Mozilla/5.0 (Macintosh; Intel Mac OS X 10_15_7) AppleWebKit/537.36 (KHTML, like Gecko) Chrome/114.0.0.0 Safari/537.36" version="21.3.8" etag="maUhvn6BpPCWmxs4phSD" type="github">
  <diagram name="Page-1" id="kQfQf0JaxWER_n3Y6EPI">
    <mxGraphModel>
      <root>
        <mxCell id="0" />
        <mxCell id="1" parent="0" />
      </root>
    </mxGraphModel>
  </diagram>
</mxfile>
